<svg width="16" height="17" viewBox="0 0 16 17" fill="none" xmlns="http://www.w3.org/2000/svg">
<path d="M13.4327 14.7564H2.56686C1.91658 14.7555 1.29318 14.4806 0.833404 13.992C0.373628 13.5034 0.115014 12.841 0.114288 12.15V4.84927C0.115014 4.15839 0.373643 3.49602 0.833432 3.0075C1.29322 2.51897 1.91662 2.24418 2.56686 2.24341H13.4327C14.083 2.24418 14.7064 2.51896 15.1663 3.00747C15.6261 3.49598 15.8849 4.15834 15.8857 4.84927V12.15C15.885 12.841 15.6263 13.5035 15.1664 13.9921C14.7066 14.4808 14.083 14.7556 13.4327 14.7564ZM2.56686 3.45769C2.21961 3.45808 1.88669 3.60482 1.64115 3.8657C1.39561 4.12659 1.25751 4.48032 1.25715 4.84927V12.15C1.25739 12.5191 1.39544 12.8729 1.64099 13.1339C1.88654 13.3949 2.21953 13.5417 2.56686 13.5421H13.4327C13.7801 13.5417 14.1131 13.3949 14.3587 13.1339C14.6043 12.873 14.7425 12.5191 14.7429 12.15V4.84927C14.7424 4.48027 14.6042 4.12654 14.3586 3.86567C14.1129 3.6048 13.78 3.45808 13.4327 3.45769H2.56686Z" fill="white"/>
<path d="M13.4327 14.7566H2.56686C1.91658 14.7557 1.29318 14.4808 0.833404 13.9922C0.373628 13.5036 0.115014 12.8412 0.114288 12.1503V4.84951C0.115014 4.15863 0.373643 3.49627 0.833432 3.00774C1.29322 2.51922 1.91662 2.24442 2.56686 2.24365H13.4327C14.083 2.24442 14.7064 2.5192 15.1663 3.00771C15.6261 3.49622 15.8849 4.15859 15.8857 4.84951V12.1503C15.885 12.8413 15.6263 13.5038 15.1664 13.9924C14.7066 14.481 14.083 14.7559 13.4327 14.7566ZM2.56686 3.45794C2.21961 3.45832 1.88669 3.60506 1.64115 3.86595C1.39561 4.12683 1.25751 4.48056 1.25715 4.84951V12.1503C1.25739 12.5193 1.39544 12.8732 1.64099 13.1342C1.88654 13.3952 2.21953 13.542 2.56686 13.5423H13.4327C13.7801 13.542 14.1131 13.3952 14.3587 13.1342C14.6043 12.8732 14.7425 12.5194 14.7429 12.1503V4.84951C14.7424 4.48052 14.6042 4.12679 14.3586 3.86592C14.1129 3.60504 13.78 3.45832 13.4327 3.45794H2.56686Z" fill="white"/>
<path d="M7.99358 10.1345C7.51413 10.1395 7.04709 9.97265 6.66787 9.66091L0.556786 4.48659C0.438272 4.38618 0.362155 4.23985 0.34518 4.07981C0.328205 3.91977 0.371763 3.75911 0.466271 3.63319C0.560779 3.50727 0.698496 3.4264 0.849125 3.40836C0.999754 3.39033 1.15096 3.43661 1.26947 3.53702L7.37873 8.71134C7.5592 8.84734 7.77512 8.92012 7.99638 8.91951C8.21764 8.9189 8.43321 8.84493 8.61301 8.70794L14.6468 3.53945C14.7647 3.43839 14.9156 3.39124 15.0662 3.40836C15.2169 3.42549 15.3549 3.50549 15.45 3.63076C15.5452 3.75604 15.5895 3.91633 15.5734 4.07638C15.5573 4.23642 15.482 4.38311 15.3641 4.48416L9.3321 9.65265C8.95026 9.96989 8.47827 10.1398 7.99358 10.1345Z" fill="white"/>
</svg>
