<svg width="16" height="15" viewBox="0 0 16 15" fill="none" xmlns="http://www.w3.org/2000/svg">
<path fill-rule="evenodd" clip-rule="evenodd" d="M6.86696 11.7339C4.17901 11.7339 2 9.55491 2 6.86696C2 4.17901 4.17901 2 6.86696 2C9.55491 2 11.7339 4.17901 11.7339 6.86696C11.7339 9.55491 9.55491 11.7339 6.86696 11.7339ZM0 6.86696C0 3.07444 3.07444 0 6.86696 0C10.6595 0 13.7339 3.07444 13.7339 6.86696C13.7339 8.18065 13.365 9.40818 12.7252 10.4516C12.7257 10.4521 12.7262 10.4526 12.7266 10.453L15.3017 13.0282C15.6923 13.4187 15.6923 14.0518 15.3017 14.4424C14.9112 14.8329 14.2781 14.8329 13.8875 14.4424L11.4373 11.9922C10.2234 13.0755 8.62205 13.7339 6.86696 13.7339C3.07444 13.7339 0 10.6595 0 6.86696Z" fill="#989898"/>
</svg>
