<svg width="121" height="42" viewBox="0 0 121 42" fill="none" xmlns="http://www.w3.org/2000/svg">
<path d="M108.129 14.8377H107.963V22.7898C107.963 23.4502 107.831 24.0102 107.566 24.4746C107.318 24.9359 106.946 25.3152 106.493 25.5676C106.011 25.8147 105.48 25.9433 104.941 25.9433C104.401 25.9433 103.87 25.8147 103.388 25.5676C102.939 25.3087 102.567 24.9302 102.313 24.4725C102.058 24.0062 101.928 23.4455 101.928 22.7878V14.8357H100.803V22.835C100.803 23.711 100.982 24.4672 101.346 25.1047C101.692 25.7239 102.206 26.229 102.826 26.5603C103.478 26.898 104.202 27.0691 104.933 27.059C105.66 27.0705 106.379 26.899 107.026 26.5596C107.652 26.2324 108.172 25.7273 108.522 25.1053C108.897 24.4678 109.082 23.7077 109.082 22.8336V14.8377H108.136H108.129Z" fill="#191919"/>
<path d="M120.833 26.6678L120.694 26.7602L120.833 26.6678L117.056 20.7671L120.622 15.0975L120.483 15.0066L120.622 15.0975L120.786 14.8374H120.483H119.54H119.448L119.399 14.9169L119.54 15.0066L119.399 14.9169L116.432 19.7744L113.323 14.9142L113.274 14.8374H113.185H112.193H111.887L112.053 15.0982L115.636 20.7186L111.891 26.6685L111.727 26.9286H112.03H113.006H113.098L113.147 26.8491L116.276 21.7119L119.547 26.8518L119.686 26.7602H119.687L119.547 26.8518L119.596 26.9286H119.687H120.694H121L120.833 26.6678Z" fill="#191919"/>
<path d="M51.7056 14.4298L51.6639 14.324H51.3754L51.333 14.4298L46.4571 26.6969L46.3644 26.9287H47.5191L47.5608 26.8229L47.4073 26.7602L47.5608 26.8229L49.0469 23.0389H53.9077L55.3779 26.8222L55.4196 26.9287H56.6722L56.5802 26.6969L51.7056 14.4298ZM51.5011 16.7884L53.4862 21.9391H49.4744L51.5011 16.7884Z" fill="#444444"/>
<path d="M80.8972 25.8133V21.3999H86.4203H86.5864V21.2307V20.4524V20.2839H86.4203H80.8972V15.9534H87.0542H87.2203V15.7842V15.0066V14.8374H87.0542H79.9345H79.769V15.0066V26.7602V26.9286H79.9345H87.2818H87.4472V26.7602V25.9818V25.8133H87.2818H80.8972Z" fill="#444444"/>
<path d="M73.905 25.7432L73.9037 25.7438L73.9685 25.8999L73.905 25.7432Z" fill="#191919"/>
<path d="M76.1826 22.1192C76.0066 21.7305 75.747 21.3871 75.423 21.1144C75.0998 20.8459 74.744 20.6209 74.3643 20.4452C73.9924 20.2655 73.6148 20.1038 73.2315 19.96C72.7586 19.774 72.3128 19.5826 71.8942 19.3858C71.5309 19.2139 71.202 18.9749 70.9242 18.6809C70.6886 18.4058 70.5644 18.0498 70.5768 17.6849C70.5768 17.1518 70.7806 16.7131 71.1994 16.358C71.6183 16.0028 72.1827 15.8189 72.9139 15.8189C73.3934 15.82 73.8704 15.8903 74.3305 16.0278C74.7453 16.1445 75.1499 16.2959 75.5401 16.4806L75.6109 16.3297L75.5388 16.4813L75.6857 16.5541L75.7591 16.4052L76.0681 15.7764L75.9199 15.7003L75.9973 15.5513C75.5213 15.3041 75.0179 15.1159 74.4979 14.9906C73.9483 14.8458 73.383 14.7718 72.8153 14.7703H72.812L72.8153 14.9387L72.812 14.7703C72.2148 14.7713 71.6253 14.9069 71.0856 15.1672C70.6015 15.396 70.1863 15.7528 69.8833 16.2003C69.5783 16.6636 69.4208 17.2114 69.4321 17.7691C69.4321 18.3952 69.5922 18.9215 69.925 19.3333C70.2688 19.7397 70.6903 20.0706 71.1637 20.3057C71.645 20.5402 72.1373 20.7521 72.6406 20.9412L72.6981 20.7829L72.6419 20.9385C73.0967 21.1063 73.5409 21.3025 73.9719 21.5262C74.355 21.7209 74.6913 21.9991 74.9571 22.3409L75.0895 22.2371L74.9571 22.3409C75.198 22.6455 75.3264 23.0573 75.3264 23.5924C75.3264 24.1477 75.1881 24.5945 74.9221 24.9462L75.0544 25.0473L74.9221 24.9442C74.6579 25.2964 74.3054 25.5697 73.9018 25.7354L73.9679 25.8911L73.9018 25.7361C73.496 25.9137 73.059 26.0054 72.6174 26.0056C72.2258 26.0047 71.8365 25.9459 71.4615 25.8311C71.0849 25.7181 70.7187 25.572 70.367 25.3944C70.0763 25.2471 69.7967 25.0779 69.5307 24.8883L69.3818 24.7778L69.2898 24.9409L69.4334 25.0244L69.2898 24.9409L68.916 25.6026L68.8365 25.7435L68.9689 25.8297L69.0576 25.6869L68.9689 25.8297C69.178 25.9645 69.4568 26.1316 69.8053 26.3311L69.8866 26.1835L69.8053 26.3304C70.2126 26.5402 70.6378 26.7116 71.0757 26.8426L71.1233 26.6829L71.0757 26.8419C71.6038 26.994 72.1507 27.068 72.6995 27.0616C73.4353 27.0616 74.089 26.9194 74.6587 26.6297C75.2077 26.3591 75.6703 25.936 75.9933 25.4092L75.8524 25.3203L75.9933 25.4092C76.3174 24.858 76.4836 24.2254 76.4731 23.5829C76.4731 23.0148 76.3784 22.5249 76.1806 22.1206L76.1826 22.1192ZM70.0117 19.2592L70.0527 19.2275L70.0117 19.2592ZM71.2312 20.1709L71.2371 20.1581L71.2312 20.1709Z" fill="#444444"/>
<path d="M97.5978 14.8374H90.0394H89.8733V15.0066V15.7842V15.9534H90.0394H93.238V26.7602V26.9286H93.404H94.2007H94.3661V26.7602V15.9534H97.5978H97.7632V15.7842V15.0066V14.8374H97.5978Z" fill="#444444"/>
<path d="M76.0672 15.7787L76.1399 15.6299L75.9957 15.5527L75.9183 15.7022L76.0672 15.7787Z" fill="#191919"/>
<path d="M66.0879 22.1192C65.9119 21.7302 65.652 21.3868 65.3276 21.1144C65.0046 20.8456 64.6487 20.6207 64.2689 20.4452C63.897 20.2655 63.5194 20.1037 63.1361 19.96C62.6632 19.774 62.2174 19.5826 61.7988 19.3858C61.4353 19.2138 61.1062 18.9748 60.8281 18.6809C60.5925 18.4057 60.4684 18.0497 60.4807 17.6848C60.4807 17.1518 60.6852 16.7131 61.104 16.3579C61.5229 16.0028 62.0873 15.8188 62.8185 15.8188C63.298 15.8199 63.775 15.8902 64.2351 16.0277C64.6497 16.1443 65.0541 16.2958 65.444 16.4806L65.5916 16.5534L65.665 16.4044L65.9734 15.7757L66.0462 15.6274L65.9026 15.5506C65.4265 15.3035 64.9232 15.1152 64.4032 14.9899C63.8536 14.845 63.2883 14.771 62.7205 14.7695V14.938V14.7695C62.121 14.7702 61.5291 14.9064 60.9876 15.1685C60.5034 15.3973 60.0883 15.7541 59.7853 16.2016C59.4799 16.665 59.3221 17.2131 59.3334 17.7711C59.3334 18.3972 59.4928 18.9235 59.8263 19.3352L59.954 19.2281L59.8263 19.3352C60.1712 19.7414 60.5938 20.0716 61.0683 20.3057C61.55 20.5402 62.0423 20.752 62.5452 20.9412L62.6014 20.7828L62.5452 20.9412C63 21.1089 63.4442 21.3052 63.8752 21.5288C64.2582 21.7236 64.5946 22.0017 64.8604 22.3436C65.1019 22.6482 65.2303 23.0599 65.2303 23.595C65.2303 24.1503 65.092 24.5971 64.826 24.9489L64.9584 25.052L64.826 24.9489C64.5617 25.3013 64.209 25.5746 63.805 25.7401L63.8712 25.895L63.805 25.7401C63.3996 25.9178 62.9628 26.0095 62.5214 26.0096C62.1298 26.0086 61.7404 25.9498 61.3654 25.8351C60.9889 25.7221 60.6227 25.576 60.271 25.3984C59.9806 25.2497 59.7014 25.0792 59.4359 24.8882L59.3387 25.023L59.1944 24.9388L58.8206 25.6006L58.7418 25.7414L58.8742 25.8277L58.9628 25.6848L58.8742 25.8277C59.0833 25.9624 59.362 26.1296 59.7105 26.329L59.7919 26.1815L59.7158 26.3317C60.1215 26.5407 60.5449 26.7117 60.981 26.8426C61.509 26.9952 62.0559 27.0699 62.6047 27.0643C63.3412 27.0643 63.9943 26.9221 64.5647 26.6323C65.1135 26.3616 65.5761 25.9385 65.8993 25.4119L65.7583 25.3229L65.8993 25.4119C66.2232 24.8606 66.3891 24.2279 66.3783 23.5856C66.3783 23.0175 66.2837 22.5275 66.0865 22.1232L66.0879 22.1192ZM64.9855 22.2465L64.9947 22.2391L64.9855 22.2465Z" fill="#444444"/>
<path d="M64.8313 24.9521H64.8306L64.9623 25.0553L64.8313 24.9521Z" fill="#191919"/>
<path d="M59.4359 24.8854L59.2863 24.7749L59.1943 24.938L59.3386 25.0222L59.4359 24.8854Z" fill="#191919"/>
<path d="M59.7128 26.3295L59.7154 26.3308L59.7181 26.3322L59.7942 26.1809L59.7128 26.3295Z" fill="#191919"/>
<g clip-path="url(#clip0_1_753)">
<path d="M31.9258 9.60669H31.8859L27.3842 15.4846L19.7597 25.439L27.2097 31.3603L39.3696 15.4846L31.9258 9.60669Z" fill="#444444"/>
<path d="M31.9269 9.60721L31.9014 9.5874L31.8859 9.60721H31.9269Z" fill="#444444"/>
<path d="M12.2836 31.3643L12.2672 31.3781L19.7597 41.0871V31.3643V25.439L12.2836 31.3643Z" fill="#2D2D2D"/>
<path d="M12.2568 31.3643L12.2676 31.3787L12.285 31.3643H12.2568Z" fill="#232323"/>
<path d="M19.7597 0.000732422V9.60676V15.4847V25.4391L27.3842 15.4847L31.8859 9.60676L31.9011 9.58753L19.7597 0.000732422Z" fill="#353535"/>
<path d="M19.7597 25.439V31.3643V41.0871L27.2069 31.3643L27.2097 31.3602L19.7597 25.439Z" fill="#4C4C4C"/>
<path d="M19.7591 0L7.55658 9.56137L7.59162 9.60672L12.1092 15.4847L19.7598 25.439V15.4847V9.60672V0.000687078L19.7591 0Z" fill="#191919"/>
<path d="M12.1091 15.4846L7.59152 9.60669H7.49808L0 15.4826L0.00137416 15.4846L12.2568 31.3644H12.2836L19.7597 25.439L12.1091 15.4846Z" fill="#232323"/>
<path d="M7.55692 9.56128L7.49811 9.60695H7.59221L7.55692 9.56128Z" fill="#00028B"/>
</g>
<defs>
<clipPath id="clip0_1_753">
<rect width="39.3695" height="41.0872" fill="white"/>
</clipPath>
</defs>
</svg>
