<svg width="147" height="34" viewBox="0 0 147 34" fill="none" xmlns="http://www.w3.org/2000/svg">
<path d="M146 20.4777L132.241 18.4778L128.478 17.8233C123.683 16.9894 118.804 18.7511 115.648 22.456V22.456C111.819 26.9509 105.549 28.501 100.067 26.3081L99.3839 26.035C97.638 25.3366 95.7749 24.9778 93.8944 24.9778L80.3433 24.9778C77.054 24.9778 73.8765 26.1717 71.4011 28.3377L69.5017 29.9997C65.8399 33.2037 60.4481 33.4466 56.5131 30.5848V30.5848C53.8277 28.6318 50.3723 28.0758 47.2098 29.0877L45.3491 29.6832C41.7572 30.8326 37.8564 30.5136 34.4989 28.7958L20.9917 21.8851C19.1994 20.9681 17.1727 20.6113 15.175 20.861V20.861C10.0917 21.4964 5.34557 18.2019 4.16346 13.2173L1.48322 1.91561" stroke="#FF7979" stroke-width="2" stroke-linecap="round"/>
</svg>
